<svg xmlns="http://www.w3.org/2000/svg" xml:space="preserve" width="222.783" height="323.556" viewBox="0 0 167.087 242.667"><defs><radialGradient cx="48.231" cy="18.138" r="9.5" fx="48.231" fy="18.138" gradientTransform="rotate(179.329 61.82 29.768)scale(1.56063 2.29111)" gradientUnits="userSpaceOnUse" href="#a"/><radialGradient cx="171.487" cy="511.223" r="81.903" fx="171.487" fy="511.223" gradientTransform="rotate(-30.306 382.42 566.552)scale(1.3355 .78241)" gradientUnits="userSpaceOnUse" href="#b"/><radialGradient cx="171.487" cy="511.223" r="81.903" fx="171.487" fy="511.223" gradientTransform="rotate(-30.306 382.42 566.552)scale(1.3355 .78241)" gradientUnits="userSpaceOnUse" href="#c"/><radialGradient cx="181.694" cy="461.841" r="81.903" fx="181.694" fy="461.841" gradientTransform="rotate(-30.306 382.42 566.552)scale(1.3355 .78241)" gradientUnits="userSpaceOnUse" href="#d"/><linearGradient id="a"><stop offset="0"/><stop offset="1" stop-opacity=".656"/></linearGradient><linearGradient id="b"><stop offset="0" stop-color="#fff" stop-opacity=".534"/><stop offset="1" stop-opacity="0"/></linearGradient><linearGradient id="c"><stop offset="0" stop-color="#fff" stop-opacity=".519"/><stop offset="1" stop-opacity="0"/></linearGradient><linearGradient id="d"><stop offset="0" stop-color="#fff" stop-opacity=".702"/><stop offset="1" stop-opacity="0"/></linearGradient></defs><path fill="#fff" stroke="#000" stroke-width=".5" d="M166.837 235.548c0 3.777-3.087 6.869-6.871 6.869H7.11c-3.775 0-6.861-3.092-6.861-6.87V7.12C.25 3.343 3.336.25 7.11.25h152.856c3.784 0 6.87 3.093 6.87 6.87z"/><text xml:space="preserve" x="8.311" y="27.548" font-family="Bitstream Vera Sans" font-size="32" letter-spacing="0" style="line-height:125%" word-spacing="0"><tspan x="8.311" y="27.548" font-family="Arial" style="-inkscape-font-specification:Arial">9</tspan></text><path d="M20.69 43.74s3.53-2.823 3.53-6.736c0-2.291-2.035-6.094-6.737-6.094s-6.736 3.804-6.736 6.094c0 3.913 3.529 6.736 3.529 6.736-3.92-3.053-10.906-.969-10.906 5.133 0 3.054 2.496 6.415 6.415 6.415 4.702 0 6.736-5.133 6.736-5.133s.597 5.85-2.887 8.982h7.699c-3.484-3.13-2.887-8.982-2.887-8.982s2.034 5.133 6.736 5.133c3.92 0 6.415-3.362 6.415-6.415 0-6.102-6.987-8.186-10.906-5.133"/><text xml:space="preserve" x="-158.864" y="-214.467" font-family="Bitstream Vera Sans" font-size="32" letter-spacing="0" style="line-height:125%" transform="scale(-1)" word-spacing="0"><tspan x="-158.864" y="-214.467" font-family="Arial" style="-inkscape-font-specification:Arial">9</tspan></text><path d="M146.484 198.74s-3.529 2.823-3.529 6.736c0 2.291 2.034 6.094 6.736 6.094s6.736-3.804 6.736-6.094c0-3.913-3.528-6.736-3.528-6.736 3.919 3.053 10.906.969 10.906-5.133 0-3.054-2.496-6.415-6.415-6.415-4.702 0-6.736 5.133-6.736 5.133s-.597-5.85 2.886-8.982h-7.698c3.484 3.13 2.886 8.982 2.886 8.982s-2.033-5.133-6.736-5.133c-3.92 0-6.415 3.362-6.415 6.415 0 6.102 6.987 8.186 10.907 5.133M57.573 25.1s5.967-4.774 5.967-11.392C63.54 9.834 60.1 3.4 52.148 3.4S40.756 9.836 40.756 13.708c0 6.618 5.968 11.392 5.968 11.392-6.629-5.163-18.445-1.638-18.445 8.68 0 5.167 4.22 10.85 10.849 10.85 7.952 0 11.392-8.68 11.392-8.68s1.01 9.894-4.882 15.19h13.02c-5.892-5.294-4.882-15.19-4.882-15.19s3.44 8.68 11.392 8.68c6.631 0 10.85-5.686 10.85-10.85 0-10.318-11.817-13.843-18.445-8.68m-.463 68.1s5.968-4.773 5.968-11.391c0-3.875-3.44-10.307-11.392-10.307-7.953 0-11.392 6.435-11.392 10.307 0 6.618 5.967 11.392 5.967 11.392-6.628-5.164-18.445-1.638-18.445 8.68 0 5.167 4.221 10.85 10.85 10.85 7.952 0 11.392-8.68 11.392-8.68s1.01 9.894-4.882 15.19h13.02c-5.892-5.294-4.882-15.19-4.882-15.19s3.44 8.68 11.392 8.68c6.63 0 10.85-5.686 10.85-10.85 0-10.318-11.817-13.844-18.446-8.68m64.448-68.275s5.967-4.774 5.967-11.392c0-3.874-3.44-10.306-11.392-10.306s-11.392 6.434-11.392 10.306c0 6.618 5.968 11.392 5.968 11.392-6.629-5.163-18.445-1.638-18.445 8.681 0 5.166 4.22 10.85 10.85 10.85 7.951 0 11.391-8.681 11.391-8.681s1.01 9.894-4.882 15.19h13.02c-5.892-5.293-4.882-15.19-4.882-15.19s3.44 8.68 11.392 8.68c6.631 0 10.85-5.685 10.85-10.849 0-10.319-11.817-13.844-18.445-8.68m0 68.1s5.967-4.774 5.967-11.392c0-3.874-3.44-10.307-11.392-10.307s-11.392 6.435-11.392 10.307c0 6.618 5.968 11.392 5.968 11.392-6.629-5.163-18.445-1.638-18.445 8.681 0 5.166 4.22 10.85 10.85 10.85 7.951 0 11.391-8.682 11.391-8.682s1.01 9.895-4.882 15.191h13.02c-5.892-5.294-4.882-15.19-4.882-15.19s3.44 8.68 11.392 8.68c6.631 0 10.85-5.686 10.85-10.849 0-10.32-11.817-13.844-18.445-8.681"/><path d="M89.577 59.281s5.967-4.774 5.967-11.392c0-3.874-3.44-10.307-11.392-10.307S72.76 44.017 72.76 47.89c0 6.618 5.967 11.392 5.967 11.392-6.628-5.163-18.445-1.638-18.445 8.681 0 5.166 4.222 10.85 10.85 10.85 7.952 0 11.392-8.682 11.392-8.682s1.01 9.895-4.882 15.191h13.02c-5.892-5.294-4.882-15.19-4.882-15.19s3.44 8.68 11.392 8.68c6.63 0 10.85-5.686 10.85-10.849 0-10.32-11.817-13.844-18.445-8.68m20.486 158.519s-5.968 4.774-5.968 11.392c0 3.875 3.44 10.307 11.392 10.307 7.953 0 11.392-6.435 11.392-10.307 0-6.618-5.967-11.392-5.967-11.392 6.628 5.164 18.445 1.638 18.445-8.68 0-5.167-4.221-10.85-10.85-10.85-7.952 0-11.392 8.68-11.392 8.68s-1.01-9.894 4.882-15.19h-13.02c5.892 5.294 4.882 15.19 4.882 15.19s-3.44-8.68-11.392-8.68c-6.63 0-10.85 5.686-10.85 10.85 0 10.318 11.817 13.844 18.446 8.68m.645-68.101s-5.967 4.774-5.967 11.392c0 3.875 3.44 10.307 11.392 10.307s11.392-6.435 11.392-10.307c0-6.618-5.967-11.392-5.967-11.392 6.628 5.164 18.444 1.639 18.444-8.68 0-5.166-4.22-10.85-10.849-10.85-7.952 0-11.392 8.681-11.392 8.681s-1.01-9.894 4.882-15.191h-13.02c5.892 5.294 4.882 15.191 4.882 15.191s-3.44-8.68-11.392-8.68c-6.63 0-10.85 5.685-10.85 10.848 0 10.32 11.817 13.845 18.445 8.681m-64.63 68.275s-5.968 4.774-5.968 11.392c0 3.874 3.44 10.307 11.392 10.307s11.392-6.435 11.392-10.307c0-6.618-5.967-11.392-5.967-11.392 6.628 5.163 18.445 1.638 18.445-8.681 0-5.166-4.221-10.85-10.85-10.85-7.952 0-11.392 8.682-11.392 8.682s-1.01-9.895 4.882-15.191h-13.02c5.892 5.294 4.882 15.19 4.882 15.19s-3.44-8.68-11.392-8.68c-6.63 0-10.85 5.686-10.85 10.849 0 10.32 11.817 13.844 18.446 8.68m.183-68.1s-5.967 4.774-5.967 11.392c0 3.875 3.44 10.307 11.392 10.307s11.392-6.435 11.392-10.307c0-6.618-5.968-11.392-5.968-11.392 6.629 5.163 18.445 1.638 18.445-8.68 0-5.167-4.22-10.85-10.849-10.85-7.952 0-11.392 8.68-11.392 8.68s-1.01-9.894 4.882-15.19h-13.02c5.892 5.294 4.882 15.19 4.882 15.19s-3.44-8.68-11.392-8.68c-6.631 0-10.85 5.686-10.85 10.85 0 10.318 11.817 13.843 18.445 8.68"/></svg>