<svg xmlns="http://www.w3.org/2000/svg" xml:space="preserve" viewBox="0 0 167.1 242.7"><path fill="#fff" stroke="#000" stroke-width=".5" d="M166.8 235.5c0 3.8-3.1 6.9-6.9 6.9H7.1c-3.8 0-6.9-3.1-6.9-6.9V7.1C.2 3.3 3.3.2 7.1.2H160c3.8 0 6.9 3.1 6.9 6.9v228.4z"/><text font-family="ArialMT" font-size="32" transform="translate(6.71 27.549)">A</text><text font-family="ArialMT" font-size="32" transform="matrix(-1 0 0 -1 160.464 214.467)">A</text><path d="M146.47 198.738s-3.565 2.822-3.565 6.685c0 2.228 2.08 6.091 6.686 6.091s6.685-3.863 6.685-6.091c0-3.863-3.565-6.685-3.565-6.685 3.862 3.12 10.845 1.04 10.845-5.2 0-3.12-2.526-6.389-6.388-6.389-4.754 0-6.686 5.2-6.686 5.2s-.594-5.794 2.823-8.914h-7.725c3.417 3.12 2.822 8.914 2.822 8.914s-2.08-5.2-6.685-5.2c-3.863 0-6.388 3.417-6.388 6.389.297 6.24 7.28 8.32 11.142 5.2M20.785 42.447s3.565-2.823 3.565-6.685c0-2.229-2.08-6.091-6.685-6.091-4.754 0-6.685 3.862-6.685 6.09 0 3.863 3.565 6.686 3.565 6.686-3.863-3.12-10.845-1.04-10.845 5.2 0 3.12 2.526 6.388 6.388 6.388 4.754 0 6.686-5.2 6.686-5.2s.594 5.794-2.823 8.914h7.725c-3.417-3.12-2.822-8.914-2.822-8.914s2.08 5.2 6.685 5.2c3.863 0 6.388-3.417 6.388-6.388-.297-6.24-7.28-8.32-11.142-5.2m74.728 71.311s12.034-9.656 12.034-22.879c0-7.725-6.983-20.799-22.88-20.799S61.79 83.005 61.79 90.88c0 13.37 12.034 22.878 12.034 22.878-13.371-10.4-37.142-3.268-37.142 17.531 0 10.4 8.469 21.84 21.84 21.84 16.044 0 22.878-17.532 22.878-17.532s2.08 19.908-9.805 30.605h25.999c-11.885-10.697-9.805-30.605-9.805-30.605s6.982 17.531 22.879 17.531c13.37 0 21.839-11.44 21.839-21.839 0-20.8-23.77-27.93-36.993-17.53"/></svg>