<svg xmlns="http://www.w3.org/2000/svg" xml:space="preserve" width="222.783" height="323.556" viewBox="0 0 167.087 242.667"><defs><linearGradient id="a"><stop offset="0"/><stop offset="1" stop-opacity=".649"/></linearGradient><linearGradient><stop offset="0"/><stop offset="1" stop-opacity=".649"/></linearGradient><linearGradient id="b"><stop offset="0" stop-color="#fff" stop-opacity=".435"/><stop offset="1" stop-opacity="0"/></linearGradient><linearGradient id="c"><stop offset="0" stop-color="#fff" stop-opacity=".489"/><stop offset="1" stop-opacity="0"/></linearGradient><linearGradient id="d"><stop offset="0" stop-color="#fff" stop-opacity=".237"/><stop offset="1" stop-opacity="0"/></linearGradient><linearGradient><stop offset="0" stop-color="#df0000"/><stop offset="1" stop-color="#df0000" stop-opacity=".672"/></linearGradient><linearGradient><stop offset="0" stop-color="#fff" stop-opacity=".313"/><stop offset="1" stop-opacity="0"/></linearGradient><linearGradient id="e"><stop offset="0" stop-color="#fff" stop-opacity=".29"/><stop offset="1" stop-opacity="0"/></linearGradient><linearGradient id="g"><stop offset="0" stop-color="#df0000"/><stop offset="1" stop-color="#df0000" stop-opacity=".641"/></linearGradient><linearGradient id="f"><stop offset="0" stop-color="#fff" stop-opacity=".435"/><stop offset="1" stop-opacity="0"/></linearGradient><radialGradient cx="-.158" cy="-8.835" r="8" fx="-.158" fy="-8.835" gradientTransform="matrix(-1.58427 -.0235 .03072 -2.47757 -.249 -26.714)" gradientUnits="userSpaceOnUse" href="#a"/><radialGradient cx="-.158" cy="-8.835" r="8" fx="-.158" fy="-8.835" gradientTransform="matrix(-1.58427 -.0235 .03072 -2.47757 -.249 -26.714)" gradientUnits="userSpaceOnUse" href="#a"/><radialGradient cx="168.025" cy="509.476" r="81.903" fx="168.025" fy="509.476" gradientTransform="matrix(1.25656 -.7774 .33664 .53613 -221.202 359.243)" gradientUnits="userSpaceOnUse" href="#b"/><radialGradient cx="168.025" cy="509.476" r="81.903" fx="168.025" fy="509.476" gradientTransform="matrix(1.25656 -.7774 .33664 .53613 -221.202 359.243)" gradientUnits="userSpaceOnUse" href="#c"/><radialGradient cx="168.025" cy="509.476" r="81.903" fx="168.025" fy="509.476" gradientTransform="matrix(1.25656 -.7774 .33664 .53613 -221.202 359.243)" gradientUnits="userSpaceOnUse" href="#d"/><radialGradient cx="159.354" cy="492.632" r="81.903" fx="159.354" fy="492.632" gradientTransform="matrix(1.08948 -.71514 .44645 .65627 -244.933 290.918)" gradientUnits="userSpaceOnUse" href="#e"/><radialGradient cx="171.487" cy="511.223" r="81.903" fx="171.487" fy="511.223" gradientTransform="rotate(-30.306 382.42 566.552)scale(1.3355 .78241)" gradientUnits="userSpaceOnUse" href="#f"/><radialGradient cx="0" cy="-3.234" r="8" fx="0" fy="-3.234" gradientTransform="rotate(179.719 -.002 -5.114)scale(1.12243 1.85033)" gradientUnits="userSpaceOnUse" href="#g"/></defs><path fill="#fff" stroke="#000" stroke-width=".5" d="M166.837 235.548c0 3.777-3.087 6.869-6.871 6.869H7.11c-3.775 0-6.861-3.092-6.861-6.87V7.12C.25 3.343 3.336.25 7.11.25h152.856c3.784 0 6.87 3.093 6.87 6.87z"/><text xml:space="preserve" x="7.846" y="26.413" fill="#df0000" font-family="Bitstream Vera Sans" font-size="32" letter-spacing="0" style="line-height:125%" word-spacing="0"><tspan x="7.846" y="26.413" font-family="Arial" style="-inkscape-font-specification:Arial">5</tspan></text><text xml:space="preserve" x="-159.488" y="-216.715" fill="#df0000" font-family="Bitstream Vera Sans" font-size="32" letter-spacing="0" style="line-height:125%" transform="scale(-1)" word-spacing="0"><tspan x="-159.488" y="-216.715" font-family="Arial" style="-inkscape-font-specification:Arial">5</tspan></text><path fill="#df0000" d="M21.758 37.257c-3.126-4.23-4.79-8.528-4.79-8.528s-1.663 4.298-4.79 8.528c-3.128 4.229-7.025 6.98-7.025 6.98s3.897 2.748 7.025 6.98c3.127 4.228 4.79 8.527 4.79 8.527s1.664-4.3 4.79-8.527c3.128-4.232 7.025-6.98 7.025-6.98s-3.897-2.751-7.025-6.98m133.653 154.268c-3.127-4.23-4.79-8.53-4.79-8.53s-1.664 4.3-4.79 8.53c-3.128 4.228-7.025 6.978-7.025 6.978s3.897 2.75 7.025 6.98c3.126 4.23 4.79 8.528 4.79 8.528s1.663-4.299 4.79-8.527c3.128-4.232 7.025-6.98 7.025-6.98s-3.897-2.751-7.025-6.98M120.6 171.791c-5.48-7.412-8.394-14.946-8.394-14.946s-2.916 7.534-8.395 14.946c-5.482 7.41-12.312 12.23-12.312 12.23s6.83 4.819 12.312 12.234c5.48 7.41 8.395 14.944 8.395 14.944s2.915-7.534 8.394-14.944c5.482-7.415 12.312-12.233 12.312-12.233s-6.83-4.82-12.312-12.23m0-128.403c-5.48-7.413-8.394-14.947-8.394-14.947s-2.916 7.534-8.395 14.947c-5.482 7.41-12.312 12.23-12.312 12.23s6.83 4.818 12.312 12.234c5.48 7.41 8.395 14.944 8.395 14.944s2.915-7.534 8.394-14.944c5.482-7.416 12.312-12.233 12.312-12.233s-6.83-4.82-12.312-12.231M62.523 171.791c-5.479-7.412-8.394-14.946-8.394-14.946s-2.916 7.534-8.395 14.946c-5.482 7.41-12.312 12.23-12.312 12.23s6.83 4.819 12.312 12.234c5.48 7.41 8.395 14.944 8.395 14.944s2.915-7.534 8.394-14.944c5.482-7.415 12.312-12.233 12.312-12.233s-6.83-4.82-12.312-12.23m0-128.403c-5.479-7.413-8.394-14.947-8.394-14.947s-2.916 7.534-8.395 14.947c-5.482 7.41-12.312 12.23-12.312 12.23s6.83 4.818 12.312 12.234c5.48 7.41 8.395 14.944 8.395 14.944s2.915-7.534 8.394-14.944c5.482-7.416 12.312-12.233 12.312-12.233s-6.83-4.82-12.312-12.231m28.155 63.854c-5.48-7.412-8.394-14.946-8.394-14.946s-2.916 7.534-8.395 14.946c-5.482 7.41-12.312 12.231-12.312 12.231s6.83 4.818 12.312 12.233c5.48 7.41 8.395 14.944 8.395 14.944s2.915-7.534 8.394-14.944c5.482-7.415 12.312-12.233 12.312-12.233s-6.83-4.82-12.312-12.23"/></svg>