<?xml version="1.0" encoding="utf-8"?>
<!-- Generator: Adobe Illustrator 23.0.1, SVG Export Plug-In . SVG Version: 6.00 Build 0)  -->
<svg version="1.1"
	 id="svg2" xmlns:cc="http://creativecommons.org/ns#" xmlns:dc="http://purl.org/dc/elements/1.1/" xmlns:inkscape="http://www.inkscape.org/namespaces/inkscape" xmlns:rdf="http://www.w3.org/1999/02/22-rdf-syntax-ns#" xmlns:sodipodi="http://sodipodi.sourceforge.net/DTD/sodipodi-0.dtd" xmlns:svg="http://www.w3.org/2000/svg"
	 xmlns="http://www.w3.org/2000/svg" xmlns:xlink="http://www.w3.org/1999/xlink" x="0px" y="0px" viewBox="0 0 167.1 242.7"
	 style="enable-background:new 0 0 167.1 242.7;" xml:space="preserve">
<style type="text/css">
	.st0{fill:#FFFFFF;stroke:#000000;stroke-width:0.5;}
	.st1{fill:#DF0000;}
	.st2{font-family:'ArialMT';}
	.st3{font-size:32px;}
</style>
<g id="Layer_x0020_1">
	<path id="path5" class="st0" d="M166.8,235.5c0,3.8-3.1,6.9-6.9,6.9H7.1c-3.8,0-6.9-3.1-6.9-6.9V7.1c0-3.8,3.1-6.9,6.9-6.9H160
		c3.8,0,6.9,3.1,6.9,6.9V235.5z"/>
</g>
<text transform="matrix(1 0 0 1 6.2456 28.0133)" class="st1 st2 st3">A</text>
<text transform="matrix(-1 0 0 -1 161.0879 213.5156)" class="st1 st2 st3">A</text>
<g id="g3011" transform="matrix(0.17001436,0,0,0.17001436,19.517107,29.794341)">
	<g id="layer1-2" transform="matrix(35.005102,0,0,35.005102,369.18369,512.27289)">
		<path id="dl" inkscape:connector-curvature="0" sodipodi:nodetypes="ccccccccc" class="st1" d="M3.2-4.7C1.1-7.6,0-10.5,0-10.5
			s-1.1,2.9-3.2,5.8C-5.4-1.9-8,0-8,0s2.6,1.9,4.8,4.7C-1.1,7.6,0,10.5,0,10.5s1.1-2.9,3.2-5.8C5.4,1.9,8,0,8,0S5.4-1.9,3.2-4.7z"/>
	</g>
</g>
<g id="layer1-2-6" transform="matrix(1.4769065,0,0,1.4769065,16.968095,44.236162)">
	<path id="dl-6" inkscape:connector-curvature="0" sodipodi:nodetypes="ccccccccc" class="st1" d="M3.2-4.7C1.1-7.6,0-10.5,0-10.5
		s-1.1,2.9-3.2,5.8C-5.4-1.9-8,0-8,0s2.6,1.9,4.8,4.7C-1.1,7.6,0,10.5,0,10.5s1.1-2.9,3.2-5.8C5.4,1.9,8,0,8,0S5.4-1.9,3.2-4.7z"/>
</g>
<g id="layer1-2-6-4" transform="matrix(1.4769065,0,0,1.4769065,150.62089,198.50346)">
	<path id="dl-6-9" inkscape:connector-curvature="0" sodipodi:nodetypes="ccccccccc" class="st1" d="M3.2-4.7C1.1-7.6,0-10.5,0-10.5
		s-1.1,2.9-3.2,5.8C-5.4-1.9-8,0-8,0s2.6,1.9,4.8,4.7C-1.1,7.6,0,10.5,0,10.5s1.1-2.9,3.2-5.8C5.4,1.9,8,0,8,0S5.4-1.9,3.2-4.7z"/>
</g>
</svg>
