<svg xmlns="http://www.w3.org/2000/svg" xml:space="preserve" viewBox="0 0 167.1 242.7"><path fill="#fff" stroke="#000" stroke-width=".5" d="M166.8 235.5c0 3.8-3.1 6.9-6.9 6.9H7.1c-3.8 0-6.9-3.1-6.9-6.9V7.1C.2 3.3 3.3.2 7.1.2H160c3.8 0 6.9 3.1 6.9 6.9v228.4z"/><text fill="#df0000" font-family="ArialMT" font-size="32" transform="translate(6.246 28.013)">A</text><text fill="#df0000" font-family="ArialMT" font-size="32" transform="matrix(-1 0 0 -1 161.088 213.516)">A</text><path fill="#df0000" d="M101.328 88.917C88.83 71.657 82.284 54.399 82.284 54.399s-6.547 17.259-19.045 34.518c-13.093 16.663-28.566 27.971-28.566 27.971s15.473 11.308 28.566 27.972c12.498 17.259 19.045 34.517 19.045 34.517s6.546-17.258 19.044-34.517c13.093-16.664 28.567-27.972 28.567-27.972s-15.474-11.308-28.567-27.971M21.694 37.295c-3.101-4.283-4.726-8.566-4.726-8.566s-1.625 4.283-4.726 8.566c-3.25 4.135-7.09 6.941-7.09 6.941s3.84 2.806 7.09 6.942c3.101 4.283 4.726 8.566 4.726 8.566s1.625-4.283 4.726-8.566c3.25-4.136 7.09-6.942 7.09-6.942s-3.84-2.806-7.09-6.941m133.653 154.267c-3.102-4.283-4.726-8.566-4.726-8.566s-1.625 4.283-4.726 8.566c-3.25 4.135-7.09 6.941-7.09 6.941s3.84 2.807 7.09 6.942c3.101 4.283 4.726 8.566 4.726 8.566s1.624-4.283 4.726-8.566c3.25-4.135 7.09-6.942 7.09-6.942s-3.84-2.806-7.09-6.941"/></svg>