<svg xmlns="http://www.w3.org/2000/svg" xml:space="preserve" width="222.783" height="323.556" viewBox="0 0 167.087 242.667"><defs><radialGradient cx="-.158" cy="-8.835" r="8" fx="-.158" fy="-8.835" gradientTransform="matrix(-1.58427 -.0235 .03072 -2.47757 -.249 -26.714)" gradientUnits="userSpaceOnUse" href="#a"/><radialGradient cx="-.158" cy="-8.835" r="8" fx="-.158" fy="-8.835" gradientTransform="matrix(-1.58427 -.0235 .03072 -2.47757 -.249 -26.714)" gradientUnits="userSpaceOnUse" href="#a"/><radialGradient cx="168.025" cy="509.476" r="81.903" fx="168.025" fy="509.476" gradientTransform="matrix(1.25656 -.7774 .33664 .53613 -221.202 359.243)" gradientUnits="userSpaceOnUse" href="#b"/><radialGradient cx="168.025" cy="509.476" r="81.903" fx="168.025" fy="509.476" gradientTransform="matrix(1.25656 -.7774 .33664 .53613 -221.202 359.243)" gradientUnits="userSpaceOnUse" href="#c"/><radialGradient cx="168.025" cy="509.476" r="81.903" fx="168.025" fy="509.476" gradientTransform="matrix(1.25656 -.7774 .33664 .53613 -221.202 359.243)" gradientUnits="userSpaceOnUse" href="#d"/><radialGradient cx="-.206" cy="-4.579" r="8" fx="-.206" fy="-4.579" gradientTransform="matrix(-1 0 0 -1.72018 -.412 -13.027)" gradientUnits="userSpaceOnUse" href="#e"/><radialGradient cx="171.487" cy="511.223" r="81.903" fx="171.487" fy="511.223" gradientTransform="rotate(-30.306 382.42 566.552)scale(1.3355 .78241)" gradientUnits="userSpaceOnUse" href="#f"/><radialGradient cx="159.354" cy="492.632" r="81.903" fx="159.354" fy="492.632" gradientTransform="matrix(1.08948 -.71514 .44645 .65627 -244.933 290.918)" gradientUnits="userSpaceOnUse" href="#g"/><radialGradient cx="159.354" cy="492.632" r="81.903" fx="159.354" fy="492.632" gradientTransform="matrix(1.08948 -.71514 .44645 .65627 -244.933 290.918)" gradientUnits="userSpaceOnUse" href="#g"/><linearGradient id="a"><stop offset="0"/><stop offset="1" stop-opacity=".649"/></linearGradient><linearGradient><stop offset="0"/><stop offset="1" stop-opacity=".649"/></linearGradient><linearGradient id="b"><stop offset="0" stop-color="#fff" stop-opacity=".435"/><stop offset="1" stop-opacity="0"/></linearGradient><linearGradient id="c"><stop offset="0" stop-color="#fff" stop-opacity=".489"/><stop offset="1" stop-opacity="0"/></linearGradient><linearGradient id="d"><stop offset="0" stop-color="#fff" stop-opacity=".237"/><stop offset="1" stop-opacity="0"/></linearGradient><linearGradient id="e"><stop offset="0" stop-color="#df0000"/><stop offset="1" stop-color="#df0000" stop-opacity=".672"/></linearGradient><linearGradient id="f"><stop offset="0" stop-color="#fff" stop-opacity=".313"/><stop offset="1" stop-opacity="0"/></linearGradient><linearGradient id="g"><stop offset="0" stop-color="#fff" stop-opacity=".29"/><stop offset="1" stop-opacity="0"/></linearGradient></defs><path fill="#fff" stroke="#000" stroke-width=".5" d="M166.837 235.548c0 3.777-3.087 6.869-6.871 6.869H7.11c-3.775 0-6.861-3.092-6.861-6.87V7.12C.25 3.343 3.336.25 7.11.25h152.856c3.784 0 6.87 3.093 6.87 6.87z"/><text xml:space="preserve" x="8.775" y="28.013" fill="#df0000" font-family="Bitstream Vera Sans" font-size="32" letter-spacing="0" style="line-height:125%" word-spacing="0"><tspan x="8.775" y="28.013" font-family="Arial" style="-inkscape-font-specification:Arial">4</tspan></text><path fill="#df0000" d="M23.332 32.282c-5.43 0-6.154 5.449-6.154 5.449s-.725-5.449-6.155-5.449c-3.8 0-7.24 2.443-7.24 7.052 0 6.09 11.016 12.213 13.395 21.154 2.263-8.934 13.394-15.065 13.394-21.154 0-4.609-3.44-7.052-7.24-7.052"/><text xml:space="preserve" x="-158.818" y="-213.515" fill="#df0000" font-family="Bitstream Vera Sans" font-size="32" letter-spacing="0" style="line-height:125%" transform="scale(-1)" word-spacing="0"><tspan x="-158.818" y="-213.515" font-family="Arial" style="-inkscape-font-specification:Arial">4</tspan></text><path fill="#df0000" d="M144.001 209.246c5.43 0 6.155-5.448 6.155-5.448s.725 5.448 6.155 5.448c3.8 0 7.24-2.443 7.24-7.051 0-6.09-11.016-12.213-13.395-21.155-2.264 8.934-13.394 15.065-13.394 21.155 0 4.608 3.439 7.051 7.24 7.051M66.328 41.452c-9.012 0-10.216 9.043-10.216 9.043s-1.203-9.043-10.215-9.043c-6.309 0-12.017 4.055-12.017 11.704 0 10.107 18.284 20.27 22.232 35.112 3.758-14.829 22.232-25.005 22.232-35.112 0-7.65-5.708-11.704-12.016-11.704M45.897 200.67c9.012 0 10.215-9.043 10.215-9.043s1.204 9.043 10.216 9.043c6.308 0 12.016-4.055 12.016-11.704 0-10.107-18.283-20.27-22.232-35.112-3.757 14.829-22.232 25.005-22.232 35.112 0 7.65 5.708 11.704 12.017 11.704M120.92 41.724c-9.012 0-10.215 9.044-10.215 9.044s-1.204-9.044-10.216-9.044c-6.308 0-12.017 4.055-12.017 11.704 0 10.107 18.284 20.271 22.233 35.112 3.757-14.828 22.232-25.005 22.232-35.112 0-7.649-5.708-11.704-12.017-11.704m-20.431 159.219c9.012 0 10.216-9.044 10.216-9.044s1.203 9.044 10.215 9.044c6.309 0 12.017-4.055 12.017-11.704 0-10.107-18.284-20.271-22.232-35.112-3.758 14.828-22.233 25.005-22.233 35.112 0 7.649 5.709 11.704 12.017 11.704"/></svg>