<svg xmlns="http://www.w3.org/2000/svg" xml:space="preserve" viewBox="0 0 167.1 242.7"><path fill="#fff" stroke="#fff" stroke-width=".5" d="M166.8 235.5c0 3.8-3.1 6.9-6.9 6.9H7.1c-3.8 0-6.9-3.1-6.9-6.9V7.1C.2 3.3 3.3.2 7.1.2H160c3.8 0 6.9 3.1 6.9 6.9v228.4z"/><text fill="#df0000" font-family="ArialMT" font-size="32" transform="translate(6.246 28.013)">A</text><path fill="#df0000" d="M108.396 64.78c-22.524 0-25.254 22.359-25.254 22.359S80.412 64.78 57.887 64.78c-15.016 0-29.35 10.221-29.35 28.747 0 24.913 45.049 49.827 54.605 86.24 9.556-36.413 54.605-61.327 54.605-86.24 0-18.526-14.334-28.747-29.35-28.747M23.372 32.282c-5.525 0-6.194 5.485-6.194 5.485s-.67-5.485-6.195-5.485c-3.684 0-7.2 2.508-7.2 7.052 0 6.111 11.05 12.222 13.395 21.154 2.344-8.932 13.394-15.043 13.394-21.154 0-4.544-3.516-7.052-7.2-7.052"/><text fill="#df0000" font-family="ArialMT" font-size="32" transform="matrix(-1 0 0 -1 161.088 213.516)">A</text><path fill="#df0000" d="M143.961 209.246c5.525 0 6.195-5.484 6.195-5.484s.67 5.484 6.195 5.484c3.683 0 7.2-2.507 7.2-7.051 0-6.112-11.051-12.223-13.395-21.155-2.344 8.932-13.394 15.043-13.394 21.155 0 4.544 3.516 7.051 7.2 7.051"/></svg>